<svg width="21" height="21" viewBox="0 0 21 21" fill="none" xmlns="http://www.w3.org/2000/svg">
<path fill-rule="evenodd" clip-rule="evenodd" d="M1.70344 13.1566L0.943436 18.4366C0.882368 18.8813 1.0337 19.3289 1.35212 19.6454C1.67053 19.9618 2.11907 20.1104 2.56343 20.0466L7.84344 19.2866C8.55914 19.1879 9.2229 18.8578 9.73343 18.3466L19.4734 8.59657C20.7732 7.34119 21.2945 5.48218 20.8369 3.73403C20.3793 1.98588 19.0141 0.620656 17.266 0.163079C15.5178 -0.294498 13.6588 0.226782 12.4034 1.52656L2.64343 11.2666C2.13223 11.7771 1.80211 12.4409 1.70344 13.1566ZM12.2934 9.76657C12.0006 10.059 11.5263 10.059 11.2334 9.76657C10.941 9.47375 10.941 8.99938 11.2334 8.70656L15.4434 4.49656C15.7389 4.22121 16.1994 4.22933 16.4851 4.51494C16.7707 4.80056 16.7788 5.26105 16.5034 5.55656L12.2934 9.76657Z" fill="#172B4D"/>
</svg>
