<svg width="30" height="27" viewBox="0 0 30 27" fill="none" xmlns="http://www.w3.org/2000/svg">
<path d="M29.6668 12.3333C29.6668 11.626 29.3859 10.9477 28.8858 10.4476C28.3857 9.94754 27.7074 9.66658 27.0002 9.66658H18.5735L19.8535 3.57325C19.8802 3.43992 19.8935 3.29325 19.8935 3.14658C19.8935 2.59992 19.6668 2.09325 19.3068 1.73325L17.8935 0.333252L9.12016 9.10658C8.62683 9.59992 8.3335 10.2666 8.3335 10.9999V24.3333C8.3335 25.0405 8.61445 25.7188 9.11454 26.2189C9.61464 26.719 10.2929 26.9999 11.0002 26.9999H23.0002C24.1068 26.9999 25.0535 26.3333 25.4535 25.3733L29.4802 15.9733C29.6002 15.6666 29.6668 15.3466 29.6668 14.9999V12.3333ZM0.333496 26.9999H5.66683V10.9999H0.333496V26.9999Z" fill="#172B4D"/>
</svg>
