<svg width="28" height="24" viewBox="0 0 28 24" fill="none" xmlns="http://www.w3.org/2000/svg">
<path d="M27.6175 3.54124C26.5996 3.99149 25.5201 4.2872 24.4148 4.41857C25.5789 3.72142 26.4499 2.62489 26.8655 1.33324C25.7722 1.9839 24.5735 2.4399 23.3255 2.68657C22.4863 1.78867 21.374 1.19319 20.1614 0.992682C18.9489 0.792177 17.7041 0.99789 16.6205 1.57784C15.537 2.15779 14.6753 3.07948 14.1697 4.19963C13.664 5.31977 13.5425 6.57561 13.8242 7.7719C11.6067 7.66096 9.43746 7.08487 7.45715 6.08105C5.47685 5.07724 3.72982 3.66813 2.3295 1.94524C1.83389 2.7965 1.57344 3.7642 1.57483 4.74924C1.57483 6.68257 2.56017 8.39057 4.05483 9.39057C3.16952 9.36265 2.3037 9.12356 1.5295 8.69324V8.76124C1.52946 10.0491 1.97488 11.2973 2.79021 12.2941C3.60554 13.291 4.74058 13.9752 6.00283 14.2306C5.18102 14.4535 4.31922 14.4864 3.48283 14.3266C3.83873 15.4351 4.53245 16.4045 5.46683 17.0991C6.40121 17.7937 7.52944 18.1786 8.6935 18.1999C7.53664 19.1085 6.21201 19.7801 4.79538 20.1764C3.37874 20.5727 1.89788 20.6858 0.4375 20.5092C2.98646 22.1484 5.95364 23.0187 8.98417 23.0159C19.2428 23.0159 24.8508 14.5186 24.8508 7.14924C24.8508 6.90924 24.8455 6.66657 24.8348 6.4279C25.926 5.63905 26.8679 4.66199 27.6162 3.54257" fill="#172B4D"/>
</svg>
