<svg width="22" height="28" viewBox="0 0 22 28" fill="none" xmlns="http://www.w3.org/2000/svg">
<path d="M17.1866 27.3334H4.8133C3.46553 27.2844 2.21005 26.6361 1.38976 25.5656C0.569464 24.4951 0.270051 23.1142 0.573296 21.8001L0.893296 20.2801C1.26134 18.2225 3.03013 16.7104 5.11996 16.6668H16.88C18.9698 16.7104 20.7386 18.2225 21.1066 20.2801L21.4266 21.8001C21.7299 23.1142 21.4305 24.4951 20.6102 25.5656C19.7899 26.6361 18.5344 27.2844 17.1866 27.3334Z" fill="#172B4D"/>
<path d="M11.6666 14.0001H10.3333C7.38778 14.0001 4.99996 11.6123 4.99996 8.66677V5.14677C4.99641 3.95751 5.46726 2.81594 6.3082 1.975C7.14913 1.13407 8.29071 0.663213 9.47996 0.666768H12.52C13.7092 0.663213 14.8508 1.13407 15.6917 1.975C16.5327 2.81594 17.0035 3.95751 17 5.14677V8.66677C17 10.0813 16.4381 11.4378 15.4379 12.438C14.4377 13.4382 13.0811 14.0001 11.6666 14.0001Z" fill="#172B4D"/>
</svg>
