<svg width="28" height="28" viewBox="0 0 28 28" fill="none" xmlns="http://www.w3.org/2000/svg">
<path d="M18.0972 0.666748H9.91717C2.4425 0.666748 0.666504 2.44408 0.666504 9.90275V18.0841C0.666504 25.5561 2.4305 27.3334 9.90251 27.3334H18.0838C25.5558 27.3334 27.3332 25.5694 27.3332 18.0974V9.91742C27.3332 2.44275 25.5692 0.666748 18.0972 0.666748ZM22.1945 19.6934H20.2492C19.5132 19.6934 19.2918 19.0974 17.9718 17.7774C16.8198 16.6668 16.3332 16.5281 16.0412 16.5281C15.6385 16.5281 15.5278 16.6388 15.5278 17.1948V18.9441C15.5278 19.4174 15.3745 19.6948 14.1385 19.6948C12.939 19.6141 11.7757 19.2497 10.7446 18.6315C9.71354 18.0132 8.84406 17.1589 8.20784 16.1388C6.6974 14.2587 5.64643 12.0523 5.1385 9.69475C5.1385 9.40275 5.24917 9.13875 5.80517 9.13875H7.75051C8.25051 9.13875 8.43051 9.36142 8.62517 9.87475C9.56917 12.6534 11.1798 15.0694 11.8332 15.0694C12.0838 15.0694 12.1932 14.9588 12.1932 14.3334V11.4721C12.1105 10.1667 11.4172 10.0561 11.4172 9.58408C11.4261 9.45959 11.4831 9.34346 11.5762 9.26032C11.6693 9.17718 11.7911 9.13358 11.9158 9.13875H14.9718C15.3892 9.13875 15.5278 9.34675 15.5278 9.84675V13.7081C15.5278 14.1254 15.7078 14.2641 15.8332 14.2641C16.0838 14.2641 16.2772 14.1254 16.7358 13.6668C17.721 12.4653 18.5259 11.1269 19.1252 9.69342C19.1864 9.52124 19.3023 9.37382 19.4552 9.27367C19.6081 9.17352 19.7895 9.12614 19.9718 9.13875H21.9172C22.4998 9.13875 22.6238 9.43075 22.4998 9.84675C21.7925 11.4313 20.9173 12.9355 19.8892 14.3334C19.6798 14.6534 19.5958 14.8201 19.8892 15.1948C20.0825 15.4868 20.7638 16.0561 21.2225 16.5974C21.889 17.2623 22.4426 18.0315 22.8612 18.8748C23.0278 19.4161 22.7492 19.6934 22.1945 19.6934Z" fill="#172B4D"/>
</svg>
